<svg width="180" height="38" viewBox="0 0 180 38" fill="none" xmlns="http://www.w3.org/2000/svg">
  <path
    d="M22.6783 35.9419L27.7649 22.8159L32.8515 9.68983C33.1655 8.86623 32.705 8.08382 31.9618 7.59996C29.136 5.75717 26.4148 3.98644 23.4423 2.60692C20.4699 1.2274 17.2568 0.259673 13.4366 0.00229943C11.1236 -0.152125 10.213 7.49701 9.96185 15.2491C9.71066 23.0012 10.1398 30.8459 10.5061 31.093C15.1112 34.1815 14.9019 33.8726 18.6697 36.1375C19.5489 36.6728 21.391 37.8876 22.6783 35.9419Z"
    fill="url(#paint0_linear_2523_3083)"/>
  <path
    d="M29.0125 5.71417C26.3123 4.14934 23.2142 2.05947 19.6557 1.33883C16.0867 0.61818 12.6434 0.463756 9.3151 0.752015C8.59293 0.813784 8.03822 1.53443 7.91262 2.53304C7.50444 5.72447 8.10102 10.841 8.40454 15.9885C8.76039 22.0625 9.95354 30.0205 10.5501 31.0912C13.062 32.7384 12.8945 32.6663 15.7832 34.4885C17.2485 35.4151 18.3475 35.7651 19.4464 34.3856C19.4987 34.3135 19.6139 34.1076 19.6767 34.0252L24.7109 21.033L29.9022 7.80404C30.2162 6.99074 29.7766 6.15685 29.0125 5.71417Z"
    fill="url(#paint1_linear_2523_3083)"/>
  <path
    d="M25.9042 3.9328C23.3504 2.63564 19.8547 0.854618 15.6787 0.411935C11.5969 -0.0307468 7.98602 0.792848 5.16014 1.4929C4.38564 1.68851 3.89372 2.53269 4.00885 3.42835C4.5217 7.25807 5.9137 11.9217 6.79287 16.7191C7.59877 21.1048 9.11637 25.5522 9.50362 27.5906C10.1316 30.8849 10.948 31.2556 12.9575 32.738C13.7948 33.3557 15.4903 33.819 16.4323 32.4909C16.4637 32.4498 16.5892 32.1615 16.6206 32.1203L21.6026 19.2517L26.7938 6.02267C27.1078 5.19908 26.6996 4.33431 25.9042 3.9328Z"
    fill="url(#paint2_linear_2523_3083)" fill-opacity="0.6"/>
  <path
    d="M13.4066 30.5868L18.4932 17.4608L23.5798 4.33474C23.8938 3.51114 23.5065 2.59489 22.6902 2.24486C20.2829 1.20508 16.4732 -0.0303172 11.7006 0.000567646C7.06411 0.0314525 3.36953 1.22567 0.993694 2.24486C0.177328 2.60519 -0.209922 3.52144 0.114531 4.34503C1.81006 8.72038 3.50559 13.0957 5.20112 17.4711C6.89665 21.8464 8.59217 26.2218 10.2877 30.5971C10.8319 32.0075 12.8624 32.0075 13.4066 30.5868Z"
    fill="url(#paint3_linear_2523_3083)"/>
  <path
    d="M44.2867 31.6356H56.0938C57.8622 31.6356 59.0054 30.6518 59.0054 28.9393C59.0054 27.2267 57.8265 26.2429 56.0938 26.2429H47.5555V20.8866H55.7008C57.3263 20.8866 58.3445 19.9757 58.3445 18.4271C58.3445 16.8785 57.2906 15.9676 55.7008 15.9676H47.5555V10.7389H56.0938C57.8265 10.7389 59.0054 9.75506 59.0054 8.04251C59.0054 6.32996 57.8622 5.34615 56.0938 5.34615H44.2867C42.2146 5.34615 41 6.62146 41 8.84413V28.1377C41 30.3603 42.2146 31.6356 44.2867 31.6356Z"
    fill="currentColor"/>
  <path
    d="M64.8048 31.6356H79.3091C81.0418 31.6356 82.2207 30.6518 82.2207 28.9393C82.2207 27.2267 81.0775 26.2429 79.3091 26.2429H69.2882V26.0972L80.5238 10.8664C81.0239 10.1741 81.4883 9.5 81.4883 8.46154C81.4883 6.54858 80.2201 5.34615 78.2016 5.34615H64.3225C62.5541 5.34615 61.4109 6.32996 61.4109 8.04251C61.4109 9.75506 62.5719 10.7389 64.3225 10.7389H73.7896V10.8846L62.4469 26.17C61.8039 27.0263 61.5359 27.7368 61.5359 28.6478C61.5359 30.4696 62.8399 31.6356 64.8048 31.6356Z"
    fill="currentColor"/>
  <path
    d="M92.6286 31.9271C93.8789 31.9271 94.5756 31.3259 94.9686 29.9231L100.095 11.8138H100.274L105.418 29.9231C105.811 31.3441 106.49 31.9271 107.758 31.9271C108.973 31.9271 109.652 31.3077 110.045 29.9231L116.011 8.1336C116.153 7.6417 116.207 7.25911 116.207 6.89474C116.207 5.7834 115.421 5.05466 114.242 5.05466C113.206 5.05466 112.545 5.61943 112.277 6.74899L107.651 25.9332H107.508L102.453 7.0587C102.096 5.67409 101.399 5.05466 100.202 5.05466C98.9697 5.05466 98.291 5.65587 97.9159 7.11336L92.8786 25.9332H92.7357L88.0915 6.74899C87.8414 5.63765 87.1984 5.05466 86.1445 5.05466C84.9656 5.05466 84.1796 5.7834 84.1796 6.89474C84.1796 7.25911 84.2332 7.6417 84.3582 8.1336L90.3422 29.9049C90.7173 31.3077 91.3961 31.9271 92.6286 31.9271Z"
    fill="currentColor"/>
  <path
    d="M123.775 31.9636C126.579 31.9636 128.723 30.7065 129.777 28.4474H129.902V30.0324C129.92 31.2348 130.688 31.9636 131.741 31.9636C132.831 31.9636 133.599 31.1984 133.599 29.9777V14.1093C133.599 12.8704 132.831 12.1235 131.741 12.1235C130.67 12.1235 129.902 12.8704 129.902 14.1093V15.6579H129.777C128.705 13.4534 126.508 12.1599 123.775 12.1599C119.113 12.1599 116.04 16.0951 116.04 22.0526C116.04 28.0466 119.095 31.9636 123.775 31.9636ZM124.864 28.6296C121.864 28.6296 119.988 26.1336 119.988 22.0526C119.988 18.0081 121.864 15.4757 124.864 15.4757C127.865 15.4757 129.812 18.0628 129.812 22.0526C129.812 26.0789 127.883 28.6296 124.864 28.6296Z"
    fill="currentColor"/>
  <path
    d="M139.077 31.9818C140.202 31.9818 141.006 31.1984 141.006 29.9049V7.07692C141.006 5.7834 140.202 5 139.077 5C137.952 5 137.148 5.7834 137.148 7.07692V29.9049C137.148 31.1984 137.952 31.9818 139.077 31.9818Z"
    fill="currentColor"/>
  <path
    d="M146.663 31.9818C147.788 31.9818 148.592 31.1984 148.592 29.9049V7.07692C148.592 5.7834 147.788 5 146.663 5C145.537 5 144.733 5.7834 144.733 7.07692V29.9049C144.733 31.1984 145.537 31.9818 146.663 31.9818Z"
    fill="currentColor"/>
  <path
    d="M160.321 32C163.823 32 166.555 30.5607 167.788 28.0466C167.949 27.664 168.056 27.2996 168.056 26.9899C168.056 26.0061 167.377 25.3866 166.448 25.3866C165.895 25.3866 165.502 25.587 165.091 26.0789C163.662 28.0648 162.34 28.8117 160.232 28.8117C157.16 28.8117 155.231 26.6255 155.231 23.1275V23.0364H166.591C167.788 23.0364 168.503 22.3077 168.503 21.0324C168.503 15.8036 165.055 12.1235 160.054 12.1235C154.731 12.1235 151.337 16.0587 151.337 22.1437C151.337 28.3381 154.659 32 160.321 32ZM155.249 20.2854C155.445 17.2976 157.374 15.2935 160.036 15.2935C162.715 15.2935 164.555 17.2794 164.644 20.2854H155.249Z"
    fill="currentColor"/>
  <path
    d="M172.248 27.0445C172.248 30.2146 173.855 31.7996 177.017 31.7996H177.213C179.107 31.7996 180 31.1984 180 30.0142C180 29.085 179.446 28.6296 178.339 28.5202L178.035 28.502C176.642 28.3927 176.124 27.7004 176.124 26.17V15.585H178.321C179.321 15.585 179.929 15.002 179.929 14.0364C179.929 13.0709 179.321 12.4696 178.321 12.4696H176.124V9.62753C176.124 8.37045 175.356 7.53239 174.195 7.53239C173.016 7.53239 172.248 8.37045 172.248 9.62753V12.4696H170.89C169.89 12.4696 169.283 13.0526 169.283 14.0364C169.283 15.002 169.89 15.585 170.89 15.585H172.248V27.0445Z"
    fill="currentColor"/>
  <defs>
    <linearGradient id="paint0_linear_2523_3083" x1="21.4191" y1="0" x2="21.4191" y2="37.006"
                    gradientUnits="userSpaceOnUse">
      <stop stop-color="#87CD94"/>
      <stop offset="1" stop-color="#98EDA7"/>
    </linearGradient>
    <linearGradient id="paint1_linear_2523_3083" x1="18.8534" y1="7.76985" x2="18.8953" y2="35.3043"
                    gradientUnits="userSpaceOnUse">
      <stop stop-color="#78C787"/>
      <stop offset="0.0001" stop-color="#78C787"/>
      <stop offset="1" stop-color="#90DD9E" stop-opacity="0.5"/>
    </linearGradient>
    <linearGradient id="paint2_linear_2523_3083" x1="15.4461" y1="0.287109" x2="15.4461" y2="33.3464"
                    gradientUnits="userSpaceOnUse">
      <stop stop-color="#53A780"/>
      <stop offset="1" stop-color="#78C787" stop-opacity="0.5"/>
    </linearGradient>
    <linearGradient id="paint3_linear_2523_3083" x1="11.8443" y1="0" x2="11.8443" y2="31.6536"
                    gradientUnits="userSpaceOnUse">
      <stop stop-color="#78C787"/>
      <stop offset="1" stop-color="#B6FFC3"/>
    </linearGradient>
  </defs>
</svg>
