<svg width="50" height="57" viewBox="0 0 50 57" fill="none" xmlns="http://www.w3.org/2000/svg">
<path d="M34.3617 54.3986L42.0686 34.5321L49.7756 14.6657C50.2513 13.4192 49.5535 12.235 48.4276 11.5026C44.146 8.71355 40.0229 6.03353 35.5193 3.9456C31.0156 1.85768 26.1473 0.393018 20.3591 0.00348021C16.8545 -0.230243 15.4749 11.3468 15.0943 23.0797C14.7137 34.8126 15.3639 46.6857 15.9189 47.0597C22.8964 51.7341 22.5792 51.2667 28.2881 54.6946C29.6202 55.5048 32.4111 57.3435 34.3617 54.3986Z" fill="url(#paint0_linear_2523_3638)"/>
<path d="M43.9583 8.64797C39.8669 6.27958 35.173 3.11654 29.7813 2.02583C24.3737 0.935123 19.1565 0.7014 14.1137 1.13768C13.0195 1.23117 12.179 2.32188 11.9887 3.83329C11.3702 8.66356 12.2742 16.4076 12.734 24.1983C13.2732 33.3914 15.081 45.4359 15.9849 47.0564C19.7908 49.5495 19.5371 49.4404 23.9139 52.1983C26.134 53.6007 27.7991 54.1304 29.4641 52.0425C29.5434 51.9334 29.7179 51.6218 29.813 51.4972L37.4407 31.8333L45.3062 11.811C45.782 10.5801 45.1159 9.31798 43.9583 8.64797Z" fill="url(#paint1_linear_2523_3638)"/>
<path d="M39.2478 5.95238C35.3785 3.9891 30.082 1.2935 23.7547 0.623496C17.5701 -0.0465093 12.0991 1.20001 7.81747 2.25956C6.64398 2.5556 5.89866 3.83329 6.0731 5.18888C6.85014 10.9852 8.95924 18.0436 10.2913 25.3046C11.5124 31.9424 13.8118 38.6736 14.3985 41.7587C15.35 46.7448 16.5869 47.3057 19.6316 49.5495C20.9002 50.4844 23.4692 51.1855 24.8964 49.1755C24.944 49.1132 25.1343 48.6769 25.1819 48.6146L32.7302 29.1377L40.5958 9.11543C41.0715 7.8689 40.453 6.56006 39.2478 5.95238Z" fill="url(#paint2_linear_2523_3638)" fill-opacity="0.6"/>
<path d="M20.3131 46.2936L28.02 26.4271L35.727 6.56068C36.2027 5.31416 35.616 3.9274 34.3791 3.39763C30.7317 1.8239 24.9595 -0.0458855 17.7282 0.00085914C10.7032 0.0476037 5.10535 1.85506 1.5056 3.39763C0.26868 3.94299 -0.318063 5.32974 0.173532 6.57626C2.74252 13.1984 5.3115 19.8206 7.88048 26.4427C10.4495 33.0649 13.0184 39.687 15.5874 46.3092C16.412 48.4438 19.4885 48.4438 20.3131 46.2936Z" fill="url(#paint3_linear_2523_3638)"/>
<defs>
<linearGradient id="paint0_linear_2523_3638" x1="32.4538" y1="0" x2="32.4538" y2="56.009" gradientUnits="userSpaceOnUse">
<stop stop-color="#87CD94"/>
<stop offset="1" stop-color="#98EDA7"/>
</linearGradient>
<linearGradient id="paint1_linear_2523_3638" x1="28.5656" y1="11.7593" x2="28.6291" y2="53.433" gradientUnits="userSpaceOnUse">
<stop stop-color="#78C787"/>
<stop offset="0.0001" stop-color="#78C787"/>
<stop offset="1" stop-color="#90DD9E" stop-opacity="0.5"/>
</linearGradient>
<linearGradient id="paint2_linear_2523_3638" x1="23.4022" y1="0.43457" x2="23.4022" y2="50.4702" gradientUnits="userSpaceOnUse">
<stop stop-color="#53A780"/>
<stop offset="1" stop-color="#78C787" stop-opacity="0.5"/>
</linearGradient>
<linearGradient id="paint3_linear_2523_3638" x1="17.9459" y1="0" x2="17.9459" y2="47.9082" gradientUnits="userSpaceOnUse">
<stop stop-color="#78C787"/>
<stop offset="1" stop-color="#B6FFC3"/>
</linearGradient>
</defs>
</svg>
